<?xml version="1.0" standalone="no"?>
<!DOCTYPE svg PUBLIC "-//W3C//DTD SVG 20010904//EN"
 "http://www.w3.org/TR/2001/REC-SVG-20010904/DTD/svg10.dtd">
<svg version="1.0" xmlns="http://www.w3.org/2000/svg"
 width="633.000000pt" height="250.000000pt" viewBox="0 0 633.000000 250.000000"
 preserveAspectRatio="xMidYMid meet">

<g transform="translate(0.000000,250.000000) scale(0.100000,-0.100000)"
fill="#000000" stroke="none">
<path d="M2698 2192 c-43 -70 -83 -135 -91 -145 -13 -18 -18 -18 -124 16 -224
71 -458 106 -590 87 -41 -5 -78 -12 -82 -15 -4 -2 -76 23 -161 56 -84 33 -154
58 -156 56 -2 -2 55 -29 126 -62 72 -32 130 -61 130 -65 0 -3 -14 -17 -31 -29
-92 -68 -64 -177 83 -317 96 -91 301 -224 345 -224 10 0 -18 20 -61 45 -210
120 -366 280 -366 374 0 43 58 121 90 121 15 0 618 -275 632 -289 4 -3 -70
-148 -163 -321 -195 -361 -346 -653 -327 -629 7 9 135 219 283 467 149 248
274 451 279 452 5 0 156 -58 335 -129 179 -71 336 -132 349 -136 26 -8 30 -46
7 -65 -25 -21 -17 -30 25 -30 35 0 42 4 51 28 14 35 -2 108 -34 159 -35 56
-152 162 -249 226 -47 32 -147 87 -222 123 -75 36 -136 68 -136 72 0 4 32 72
70 151 39 79 69 145 67 147 -1 1 -37 -54 -79 -124z m-548 -72 c143 -18 411
-88 426 -111 6 -10 -57 -119 -79 -137 -10 -8 -90 19 -320 110 -169 67 -304
125 -300 129 20 19 156 23 273 9z m611 -186 c216 -106 385 -238 438 -342 47
-93 43 -92 -309 75 -179 85 -329 158 -333 162 -10 10 64 161 79 161 6 0 62
-25 125 -56z"/>
<path d="M525 1458 c-7 -18 -69 -174 -138 -345 l-125 -313 66 0 67 0 89 225
c83 209 117 272 102 193 -3 -18 -15 -107 -26 -198 -11 -91 -22 -177 -25 -192
l-4 -28 73 0 74 0 153 231 c84 128 155 227 156 222 2 -6 -37 -110 -86 -232
l-90 -221 69 0 68 0 136 340 c75 187 136 342 136 345 0 3 -50 4 -111 3 l-112
-3 -134 -205 c-73 -113 -138 -212 -143 -220 -4 -8 -11 -12 -15 -8 -5 5 26 331
40 411 l5 27 -106 0 -105 0 -14 -32z"/>
<path d="M1970 1481 c0 -13 70 -314 74 -318 2 -2 30 50 64 114 59 116 60 119
51 166 l-11 47 -89 0 c-49 0 -89 -4 -89 -9z"/>
<path d="M2260 1248 c-84 -134 -155 -251 -158 -260 -2 -10 6 -56 19 -103 l24
-85 91 0 91 0 -47 175 -47 175 81 77 c45 43 125 120 178 171 l97 92 -88 0 -89
0 -152 -242z"/>
<path d="M4295 1471 c-22 -10 -52 -31 -67 -47 -47 -51 -124 -240 -113 -281 10
-41 40 -48 225 -53 l175 -5 -1 -30 c-2 -53 -35 -109 -69 -116 -17 -4 -120 -7
-231 -8 l-201 -1 -25 -65 -26 -65 242 0 c288 0 322 7 383 73 46 49 123 232
123 290 0 58 -12 62 -222 65 -209 4 -200 0 -172 73 10 25 26 44 41 50 13 5
112 9 219 9 l195 0 18 43 c10 23 21 52 25 65 l7 22 -243 0 c-215 0 -248 -3
-283 -19z"/>
<path d="M2717 1423 c-9 -27 -17 -51 -17 -55 0 -5 32 -8 70 -8 l71 0 19 46
c11 25 20 50 20 55 0 5 -33 9 -73 9 l-73 0 -17 -47z"/>
<path d="M2671 1308 c-5 -13 -50 -126 -101 -253 -51 -126 -94 -236 -97 -242
-4 -10 14 -13 70 -13 l75 0 87 218 c48 119 96 238 106 265 l19 47 -75 0 c-69
0 -76 -2 -84 -22z"/>
<path d="M2928 1266 l-26 -66 170 0 169 0 -3 -27 -3 -28 -150 -5 c-205 -7
-222 -18 -284 -173 -38 -95 -39 -119 -5 -146 25 -20 39 -21 239 -21 l211 0 82
205 c128 322 130 318 -173 323 l-201 3 -26 -65z m262 -243 c0 -4 -7 -27 -16
-50 l-17 -43 -113 0 c-67 0 -114 4 -114 10 0 21 34 79 49 83 28 8 211 7 211 0z"/>
<path d="M3470 1098 c-51 -128 -100 -248 -107 -266 l-14 -33 77 3 76 3 78 195
78 195 68 3 c90 4 114 -2 114 -31 0 -13 -31 -100 -69 -195 l-69 -172 73 0 c49
0 75 4 78 13 159 385 177 445 148 481 -23 28 -82 36 -261 36 l-176 0 -94 -232z"/>
<path d="M4965 1318 c-80 -29 -109 -69 -185 -259 -56 -137 -64 -195 -31 -228
28 -28 64 -32 269 -29 l184 3 23 57 c13 31 20 59 17 62 -3 3 -83 6 -178 6 -99
0 -175 4 -179 10 -3 5 -3 20 1 34 l6 26 191 2 191 3 38 95 c51 124 58 178 28
205 -20 18 -38 20 -184 22 -98 1 -173 -2 -191 -9z m219 -127 c3 -5 1 -23 -5
-40 l-11 -31 -109 0 c-121 0 -132 8 -84 55 22 23 32 25 114 25 49 0 92 -4 95
-9z"/>
<path d="M5420 1098 c-51 -128 -100 -248 -107 -266 l-14 -33 77 3 76 3 78 195
78 195 68 3 c90 4 114 -2 114 -31 0 -13 -31 -100 -69 -195 l-69 -172 73 0 c49
0 75 4 78 13 159 385 177 445 148 481 -23 28 -82 36 -261 36 l-176 0 -94 -232z"/>
<path d="M1340 1304 c-72 -31 -99 -72 -177 -272 -52 -134 -57 -173 -25 -205
22 -21 30 -22 205 -22 180 0 182 0 229 27 58 35 74 60 142 233 75 192 74 188
38 225 l-30 30 -174 0 c-132 -1 -181 -4 -208 -16z m270 -119 c10 -12 5 -34
-30 -119 -23 -57 -51 -112 -62 -122 -35 -33 -232 -32 -244 0 -8 20 65 202 92
231 22 24 29 25 127 25 80 0 107 -3 117 -15z"/>
<path d="M1846 958 l-163 -153 80 -3 c44 -2 86 -1 93 2 13 5 169 306 159 306
-3 0 -79 -69 -169 -152z"/>
</g>
</svg>
